<svg width="24" height="24" viewBox="0 0 24 24" fill="none" xmlns="http://www.w3.org/2000/svg">
<path fill-rule="evenodd" clip-rule="evenodd" d="M17 2C17 1.44772 16.5523 1 16 1C15.4477 1 15 1.44772 15 2V3H9V2C9 1.44772 8.55228 1 8 1C7.44772 1 7 1.44772 7 2V3H5C3.34315 3 2 4.34315 2 6V10V20C2 21.6569 3.34315 23 5 23H19C20.6569 23 22 21.6569 22 20V10V6C22 4.34315 20.6569 3 19 3H17V2ZM4 11H20V20C20 20.5523 19.5523 21 19 21H5C4.44772 21 4 20.5523 4 20V11ZM8.5 12H6V14.5H8.5V12ZM11 12H13.5V14.5H11V12ZM18 12H15.5V14.5H18V12Z" fill="#202020"/>
</svg>
