<svg width="26" height="24" viewBox="0 0 26 24" fill="none" xmlns="http://www.w3.org/2000/svg">
<path fill-rule="evenodd" clip-rule="evenodd" d="M21.7419 4.78088C21.2747 3.73156 20.2228 3 19 3H17V2C17 1.44772 16.5523 1 16 1C15.4477 1 15 1.44772 15 2V3H9V2C9 1.44772 8.55228 1 8 1C7.44772 1 7 1.44772 7 2V3H5C3.34315 3 2 4.34315 2 6V10V20C2 21.6569 3.34315 23 5 23H19C20.6569 23 22 21.6569 22 20V11.8056L20 13.8525V20C20 20.5523 19.5523 21 19 21H5C4.44772 21 4 20.5523 4 20V11H15.6656L21.7419 4.78088ZM13.5 13.2165V12H11V14.5H12.2459L13.5 13.2165ZM8.5 12H6V14.5H8.5V12Z" fill="#202020"/>
<path d="M21.8214 5.95958C21.9671 5.81387 22.1401 5.69829 22.3304 5.61944C22.5208 5.54059 22.7248 5.5 22.9309 5.5C23.137 5.5 23.341 5.54059 23.5314 5.61944C23.7217 5.69829 23.8947 5.81387 24.0404 5.95958C24.1861 6.10528 24.3017 6.27826 24.3806 6.46863C24.4594 6.659 24.5 6.86304 24.5 7.0691C24.5 7.27515 24.4594 7.47919 24.3806 7.66956C24.3017 7.85993 24.1861 8.03291 24.0404 8.17861L14.719 17.719L11.6678 18.5512L12.5 15.5L21.8214 5.95958Z" fill="#202020"/>
</svg>
