<svg width="24" height="22" viewBox="0 0 24 22" fill="none" xmlns="http://www.w3.org/2000/svg">
<path d="M20.6235 6.97899C20.6592 6.97976 20.6883 6.95079 20.6878 6.91514L20.611 1.68134C20.6107 1.66069 20.6054 1.65139 20.6016 1.6461C20.5962 1.63864 20.5864 1.6299 20.5718 1.62398C20.5573 1.61806 20.5442 1.61742 20.5351 1.61901C20.5287 1.62013 20.5184 1.62305 20.5037 1.6376L15.3474 6.75745C15.3328 6.772 15.3298 6.78229 15.3286 6.7887C15.3269 6.79774 15.3275 6.81089 15.3333 6.82546C15.3391 6.84003 15.3478 6.84992 15.3552 6.85534C15.3605 6.85919 15.3697 6.86458 15.3904 6.86503L20.6235 6.97899Z" fill="#202020" stroke="#202020"/>
<mask id="path-2-inside-1" fill="white">
<path fill-rule="evenodd" clip-rule="evenodd" d="M20.8295 1.67813L20.9063 6.91193C20.9087 7.07139 20.7782 7.20094 20.6188 7.19747L15.3856 7.08351C15.1374 7.07811 15.0172 6.77732 15.1934 6.60238L20.3498 1.48252C20.526 1.30758 20.8259 1.42986 20.8295 1.67813ZM21.1878 6.9078C21.1924 7.22671 20.9315 7.48581 20.6126 7.47887L15.3795 7.36491C14.883 7.3541 14.6427 6.75254 14.9951 6.40264L20.1514 1.28279C20.5038 0.932896 21.1037 1.17746 21.111 1.674L21.1878 6.9078Z"/>
</mask>
<path fill-rule="evenodd" clip-rule="evenodd" d="M20.8295 1.67813L20.9063 6.91193C20.9087 7.07139 20.7782 7.20094 20.6188 7.19747L15.3856 7.08351C15.1374 7.07811 15.0172 6.77732 15.1934 6.60238L20.3498 1.48252C20.526 1.30758 20.8259 1.42986 20.8295 1.67813ZM21.1878 6.9078C21.1924 7.22671 20.9315 7.48581 20.6126 7.47887L15.3795 7.36491C14.883 7.3541 14.6427 6.75254 14.9951 6.40264L20.1514 1.28279C20.5038 0.932896 21.1037 1.17746 21.111 1.674L21.1878 6.9078Z" fill="#202020"/>
<path d="M20.9063 6.91193L21.9062 6.89726L21.9062 6.89726L20.9063 6.91193ZM20.8295 1.67813L19.8296 1.6928L19.8296 1.6928L20.8295 1.67813ZM20.6188 7.19747L20.6405 6.1977L20.6405 6.1977L20.6188 7.19747ZM15.3856 7.08351L15.4074 6.08375L15.4074 6.08375L15.3856 7.08351ZM20.6126 7.47887L20.6344 6.4791L20.6344 6.4791L20.6126 7.47887ZM21.1878 6.9078L20.1879 6.92248L20.1879 6.92248L21.1878 6.9078ZM15.3795 7.36491L15.3577 8.36468L15.3577 8.36468L15.3795 7.36491ZM21.111 1.674L22.1109 1.65933L22.1109 1.65933L21.111 1.674ZM19.9064 6.92661L19.8296 1.6928L21.8294 1.66346L21.9062 6.89726L19.9064 6.92661ZM20.6405 6.1977C20.2335 6.18884 19.9005 6.51955 19.9064 6.92661L21.9062 6.89726C21.9169 7.62323 21.3229 8.21303 20.597 8.19723L20.6405 6.1977ZM15.4074 6.08375L20.6405 6.1977L20.597 8.19723L15.3639 8.08327L15.4074 6.08375ZM15.898 7.31199C16.3478 6.86538 16.0411 6.09755 15.4074 6.08375L15.3639 8.08327C14.2337 8.05866 13.6867 6.68926 14.4888 5.89276L15.898 7.31199ZM21.0544 2.19214L15.898 7.31199L14.4888 5.89276L19.6452 0.772911L21.0544 2.19214ZM19.8296 1.6928C19.8389 2.32658 20.6046 2.63874 21.0544 2.19214L19.6452 0.772911C20.4473 -0.0235879 21.8128 0.533138 21.8294 1.66346L19.8296 1.6928ZM20.6344 6.4791C20.3868 6.47371 20.1842 6.67487 20.1879 6.92248L22.1876 6.89313C22.2006 7.77855 21.4762 8.49791 20.5909 8.47863L20.6344 6.4791ZM15.4013 6.36515L20.6344 6.4791L20.5909 8.47863L15.3577 8.36468L15.4013 6.36515ZM15.6997 7.11226C15.9733 6.8406 15.7867 6.37354 15.4013 6.36515L15.3577 8.36468C13.9793 8.33466 13.3122 6.66448 14.2905 5.69303L15.6997 7.11226ZM20.856 1.9924L15.6997 7.11226L14.2905 5.69303L19.4469 0.573178L20.856 1.9924ZM20.1111 1.68867C20.1167 2.07418 20.5824 2.26407 20.856 1.9924L19.4469 0.573178C20.4252 -0.398274 22.0906 0.280746 22.1109 1.65933L20.1111 1.68867ZM20.1879 6.92248L20.1111 1.68867L22.1109 1.65933L22.1876 6.89313L20.1879 6.92248Z" fill="#202020" mask="url(#path-2-inside-1)"/>
<path fill-rule="evenodd" clip-rule="evenodd" d="M2.25176 10.8365C2.25176 15.5778 6.0953 19.4213 10.8365 19.4213C14.8055 19.4213 18.1453 16.7279 19.1281 13.0693C19.2752 12.5217 19.7485 12.1031 20.3154 12.1031C20.9994 12.1031 21.5351 12.7024 21.3759 13.3676C20.236 18.1316 15.9498 21.6731 10.8365 21.6731C4.8517 21.6731 1.71661e-05 16.8214 1.71661e-05 10.8365C1.71661e-05 4.85168 4.8517 0 10.8365 0C13.7265 0 16.3522 1.13125 18.295 2.97508C19.0292 3.67185 18.4634 4.78496 17.4512 4.78496C17.1148 4.78496 16.7952 4.64741 16.544 4.42365C15.0271 3.07264 13.0277 2.25175 10.8365 2.25175C6.0953 2.25175 2.25176 6.09528 2.25176 10.8365Z" fill="#202020"/>
<path fill-rule="evenodd" clip-rule="evenodd" d="M11.1854 4.78503C10.6413 4.78503 10.2003 5.2261 10.2003 5.77017V11.8157L7.03401 13.6424C6.56274 13.9143 6.40111 14.5167 6.67299 14.988C6.94488 15.4593 7.54733 15.6209 8.0186 15.349L11.6777 13.238C11.9826 13.0621 12.1705 12.7367 12.1705 12.3847V5.77017C12.1705 5.2261 11.7295 4.78503 11.1854 4.78503Z" fill="#202020"/>
</svg>
